<svg id="Layer_1" data-name="Layer 1" xmlns="http://www.w3.org/2000/svg" viewBox="0 0 490 490">
    <defs>
        <style>
            .cls-1 {
                font-size: 106px;
                font-family: 'Rubik', sans-serif;
                fill: white;
            }

            path {
                fill: white;
            }
        </style>
    </defs>
    <path
        d="M245,0C380.1,0,490,109.9,490,245S380.1,490,245,490,0,380.1,0,245,109.9,0,245,0Zm0,469.1c123.6,0,224.1-100.5,224.1-224.1S368.6,20.9,245,20.9,20.9,121.4,20.9,245,121.4,469.1,245,469.1Z"
        transform="translate(0 0)" />
    <path
        d="M141.23,203.71l.29.34.76.74,48.58,42a10.24,10.24,0,0,0,14.13.14,9.4,9.4,0,0,0,.14-13.63l-1-.85-29-25.07,37.41-.39c58.54.42,107.58,42.87,114.37,99a11.62,11.62,0,0,0,11.75,9.93,9.24,9.24,0,0,0,9.45-9h0a6.49,6.49,0,0,0,0-1.08c-8.07-67.49-67-118.58-137.39-119.08l-37.76.74,23.84-25.63a10.3,10.3,0,0,0-1.92-14.8,11.22,11.22,0,0,0-14.29.74l-39.82,42.92-.65.74v.34l-.29.45a.55.55,0,0,1,0,.4v2.27a.55.55,0,0,1,0,.4V201a.58.58,0,0,0,0,.45v.91a1.92,1.92,0,0,1,.29.45v.79Z"
        transform="translate(0 0)" /><text class="cls-1" transform="translate(191.06 351.14)">5</text>
</svg>