<svg id="Layer_1" data-name="Layer 1" xmlns="http://www.w3.org/2000/svg" viewBox="0 0 64 64"><defs><style>.cls-1{fill:#fff;}</style></defs><g id="Rewind-forward"><path class="cls-1" d="M32,0A32,32,0,1,1,0,32,32,32,0,0,1,32,0Zm0,62A30,30,0,1,0,2,32,30,30,0,0,0,32,62Z"/></g><path class="cls-1" d="M16,22.86l.05.06.13.13,8.27,7.41a1.7,1.7,0,1,0,2.43-2.38l-.17-.15-4.94-4.42,6.37-.07A19.75,19.75,0,0,1,47.61,40.9a2,2,0,0,0,2,1.75,1.6,1.6,0,0,0,1.61-1.59,1.21,1.21,0,0,0,0-.19,23.72,23.72,0,0,0-23.39-21L21.4,20l4.06-4.52A1.86,1.86,0,0,0,22.7,13l-6.78,7.57-.11.13v.06l-.05.08a.09.09,0,0,1,0,.07v.4a.09.09,0,0,1,0,.07v1a.11.11,0,0,0,0,.08v.16a.35.35,0,0,1,.05.08v.14Z"/><path class="cls-1" d="M25.47,47.75H23.78V37.53l-1.72,1V36.83l1.72-1.15h1.69Z"/><path class="cls-1" d="M29.09,47a3.48,3.48,0,0,1-.88-2.52V39a3.52,3.52,0,0,1,.88-2.53,3.45,3.45,0,0,1,2.57-.9,3.44,3.44,0,0,1,2.57.9A3.49,3.49,0,0,1,35.1,39v5.49A3.46,3.46,0,0,1,34.22,47a3.41,3.41,0,0,1-2.56.9A3.39,3.39,0,0,1,29.09,47ZM33,45.8a1.9,1.9,0,0,0,.43-1.35V39A2,2,0,0,0,33,37.61a2.12,2.12,0,0,0-2.66,0A2,2,0,0,0,29.91,39v5.49a2,2,0,0,0,.42,1.35,1.74,1.74,0,0,0,1.33.47A1.7,1.7,0,0,0,33,45.8Z"/></svg>