<?xml version="1.0" encoding="utf-8"?>
<!-- Generator: Adobe Illustrator 24.3.0, SVG Export Plug-In . SVG Version: 6.00 Build 0)  -->
<svg version="1.1" id="Capa_1" xmlns="http://www.w3.org/2000/svg" xmlns:xlink="http://www.w3.org/1999/xlink" x="0px" y="0px"
	 viewBox="0 0 56 56" style="enable-background:new 0 0 56 56;" xml:space="preserve">
<style type="text/css">
	.st0{fill:#6479F9;}
	.st1{fill:#7C7C7C;}
	.st2{fill:#709FDC;}
</style>
<g id="XMLID_2_">
	<g>
		<path class="st0" d="M47.8,8.2c10.9,10.9,10.9,28.7,0,39.6c-10.9,10.9-28.7,10.9-39.6,0C-2.7,36.9-2.7,19.1,8.2,8.2
			C19.1-2.7,36.9-2.7,47.8,8.2z M33,33c2.7-2.7,2.7-7.2,0-9.9s-7.2-2.7-9.9,0s-2.7,7.2,0,9.9S30.2,35.7,33,33z"/>
	</g>
	<g>
	</g>
</g>
<g id="XMLID_1_">
	<g>
		<path class="st1" d="M35.8,20.2c4.3,4.3,4.3,11.3,0,15.6c-4.3,4.3-11.3,4.3-15.6,0c-4.3-4.3-4.3-11.3,0-15.6
			C24.5,15.9,31.5,15.9,35.8,20.2z M30.1,30.1c1.2-1.2,1.2-3.1,0-4.2s-3.1-1.2-4.2,0s-1.2,3.1,0,4.2S29,31.3,30.1,30.1z"/>
	</g>
	<g>
	</g>
</g>
<g>
	<path class="st2" d="M35.8,35.8c-0.8,0.8-1.6,1.4-2.5,1.9l8.2,14.9c2.3-1.2,4.4-2.8,6.4-4.8s3.5-4.1,4.8-6.4l-14.9-8.2
		C37.2,34.2,36.5,35,35.8,35.8z"/>
	<path class="st2" d="M20.2,20.2c0.8-0.8,1.6-1.4,2.5-1.9L14.6,3.4c-2.3,1.2-4.4,2.8-6.4,4.8s-3.5,4.1-4.8,6.4l14.9,8.2
		C18.8,21.8,19.5,21,20.2,20.2z"/>
</g>
</svg>
