<svg id="Layer_1" data-name="Layer 1" xmlns="http://www.w3.org/2000/svg" viewBox="0 0 64 64">
    <g id="Rewind-forward">
        <path
            d="M34.64,21.23A1,1,0,0,0,33,22v7.86L22.64,21.23A1,1,0,0,0,21,22V42a1,1,0,0,0,.58.91A1,1,0,0,0,22,43a1,1,0,0,0,.64-.23L33,34.13V42a1,1,0,0,0,.58.91A1,1,0,0,0,34,43a1,1,0,0,0,.64-.23l12-10a1,1,0,0,0,0-1.54ZM23,39.87V24.13L32.44,32Zm12,0V24.13L44.44,32Z" />
        <path d="M32,0A32,32,0,1,0,64,32,32,32,0,0,0,32,0Zm0,62A30,30,0,1,1,62,32,30,30,0,0,1,32,62Z" />
    </g>
</svg>