<svg id="Layer_1" data-name="Layer 1" xmlns="http://www.w3.org/2000/svg" viewBox="0 0 490 490">
    <defs>
        <style>
            path {
                fill: white;
            }
        </style>
    </defs>
    <path
        d="M245,0C380.1,0,490,109.9,490,245S380.1,490,245,490,0,380.1,0,245,109.9,0,245,0Zm0,469.1c123.6,0,224.1-100.5,224.1-224.1S368.6,20.9,245,20.9,20.9,121.4,20.9,245,121.4,469.1,245,469.1Z"
        transform="translate(0 0)" />
    <path
        d="M345.06,237.47a8.45,8.45,0,0,1,.93,11,7,7,0,0,1-.93,1L260.17,328a6.7,6.7,0,0,1-4.53,1.8,6.45,6.45,0,0,1-3-.7,7.94,7.94,0,0,1-4.1-7.14v-61.7L175.28,328a6.68,6.68,0,0,1-4.53,1.8,6.45,6.45,0,0,1-3-.7,7.94,7.94,0,0,1-4.1-7.14V165.1c0-4.33,3.15-7.84,7.06-7.85a6.68,6.68,0,0,1,4.54,1.82l73.29,67.66V165.1c0-4.33,3.15-7.84,7.06-7.85a6.68,6.68,0,0,1,4.54,1.82Zm-100.46,6L177.82,181.8V305.21Zm84.89,0L262.71,181.8V305.21Z"
        transform="translate(0 0)" />
</svg>