<svg id="Layer_1" data-name="Layer 1" xmlns="http://www.w3.org/2000/svg" viewBox="0 0 496 490">
    <defs>
        <style>
            .cls-1 {
                font-size: 106px;
                font-family: 'Rubik', sans-serif;
                fill: white;
            }

            path {
                fill: white;
            }
        </style>
    </defs>
    <path
        d="M248,0C384.75,0,496,109.9,496,245S384.75,490,248,490,0,380.1,0,245,111.25,0,248,0Zm0,469.1c125.11,0,226.84-100.5,226.84-224.1S373.11,20.9,248,20.9,21.16,121.4,21.16,245,122.89,469.1,248,469.1Z"
        transform="translate(0 0)" />
    <path
        d="M352.75,203.71l-.3.34-.77.74-49.27,42a10.49,10.49,0,0,1-14.33.14,9.3,9.3,0,0,1-.15-13.63l1-.85,29.43-25.07L280.42,207c-59.37.42-109.11,42.87-116,99a11.73,11.73,0,0,1-11.91,9.93,9.33,9.33,0,0,1-9.6-9h0a6.49,6.49,0,0,1,0-1.08c8.19-67.49,68-118.58,139.36-119.08l38.31.74-24.19-25.63a10.21,10.21,0,0,1,1.95-14.8,11.5,11.5,0,0,1,14.49.74l40.4,42.92.65.74v.34l.3.45a.55.55,0,0,0,0,.4v2.27a.55.55,0,0,0,0,.4V201a.58.58,0,0,1,0,.45v.91a2,2,0,0,0-.3.45v.79Z"
        transform="translate(0 0)" /><text class="cls-1" transform="translate(234.72 351.64)">5</text>
</svg>