<svg id="Layer_1" data-name="Layer 1" xmlns="http://www.w3.org/2000/svg" viewBox="0 0 64 64"><defs><style>.cls-1{fill:#fff;}</style></defs><g id="Rewind-forward"><path class="cls-1" d="M32,0A32,32,0,1,0,64,32,32,32,0,0,0,32,0Zm0,62A30,30,0,1,1,62,32,30,30,0,0,1,32,62Z"/></g><path class="cls-1" d="M48,22.86l-.05.06-.13.13-8.27,7.41a1.7,1.7,0,1,1-2.26-2.53l4.94-4.42-6.37-.07A19.75,19.75,0,0,0,16.39,40.9a2,2,0,0,1-2,1.75,1.6,1.6,0,0,1-1.6-1.78,23.72,23.72,0,0,1,23.39-21L42.6,20l-4.06-4.52A1.86,1.86,0,0,1,41.3,13l6.78,7.57.11.13,0,.06.05.08a.16.16,0,0,0,0,.07l0,.08a.26.26,0,0,1,0,.08l0,.08a.19.19,0,0,1,0,.07l0,.09a.15.15,0,0,0,0,.07s0,.07,0,.1a.22.22,0,0,0,0,.08v.09a.49.49,0,0,1,0,.12v.06a.11.11,0,0,1,0,.05s0,.08,0,.12l0,.09a.24.24,0,0,1,0,.08l0,.09,0,.08a.2.2,0,0,1,0,.08l0,.08s0,.05,0,.08a.56.56,0,0,0-.05.08l0,.07,0,.07Z"/><path class="cls-1" d="M32.26,47.91H30.57V37.68l-1.72,1V37l1.72-1.14h1.69Z"/><path class="cls-1" d="M35.88,47.13A3.48,3.48,0,0,1,35,44.6V39.12a3.64,3.64,0,0,1,6-2.54,3.51,3.51,0,0,1,.87,2.54V44.6a3.62,3.62,0,0,1-6,2.53ZM39.77,46a1.9,1.9,0,0,0,.43-1.35V39.12a1.9,1.9,0,0,0-.43-1.35,2.1,2.1,0,0,0-2.65,0,2,2,0,0,0-.42,1.35V44.6A2,2,0,0,0,37.12,46a1.74,1.74,0,0,0,1.33.47A1.71,1.71,0,0,0,39.77,46Z"/></svg>