<svg id="Layer_1" data-name="Layer 1" xmlns="http://www.w3.org/2000/svg" viewBox="0 0 64 64"><defs><style>.cls-1{fill:#fff;}</style></defs><g id="Rewind-forward"><path class="cls-1" d="M32,0A32,32,0,1,0,64,32,32,32,0,0,0,32,0Zm0,62A30,30,0,1,1,62,32,30,30,0,0,1,32,62Z"/></g><path class="cls-1" d="M50.09,22.48l-.06.07-.14.14-9.12,8.17A1.9,1.9,0,1,1,38.25,28l5.44-4.88-7-.12A21.55,21.55,0,0,0,15.17,42.29,2.15,2.15,0,0,1,13,44.21a1.8,1.8,0,0,1-1.79-2A25.88,25.88,0,0,1,37,19.12l7.05.12-4.53-5a2,2,0,0,1,3-2.72l7.57,8.45.12.15,0,.06.06.1a.2.2,0,0,1,0,.08.3.3,0,0,1,0,.08.36.36,0,0,1,0,.09l0,.09s0,.05,0,.08l0,.1s0,.05,0,.08,0,.07,0,.11V21a.41.41,0,0,1,0,.11.57.57,0,0,1,0,.13v.06a.43.43,0,0,1,0,.05.59.59,0,0,1,0,.14.36.36,0,0,1,0,.1s0,.06,0,.09l0,.1,0,.09,0,.09a.36.36,0,0,1,0,.09l0,.08a.41.41,0,0,1,0,.09l-.05.08-.06.08Z"/><path class="cls-1" d="M31.77,48.49H30.28v-9l-1.52.93V38.85l1.52-1h1.49Z"/><path class="cls-1" d="M35,47.8a3.11,3.11,0,0,1-.77-2.23V40.73A3,3,0,0,1,35,38.5a3,3,0,0,1,2.26-.8,3,3,0,0,1,2.27.8,3.07,3.07,0,0,1,.77,2.23v4.84a3,3,0,0,1-.78,2.23,3,3,0,0,1-2.26.79A3,3,0,0,1,35,47.8Zm3.44-1a1.72,1.72,0,0,0,.38-1.19V40.73a1.7,1.7,0,0,0-.38-1.19,1.84,1.84,0,0,0-2.34,0,1.7,1.7,0,0,0-.38,1.19v4.84a1.72,1.72,0,0,0,.38,1.19,1.87,1.87,0,0,0,2.34,0Z"/></svg>