<svg id="Layer_1" data-name="Layer 1" xmlns="http://www.w3.org/2000/svg" viewBox="0 0 490 490"><defs><style>.cls-1{fill:#fff;}</style></defs><path class="cls-1" d="M245,0C109.9,0,0,109.9,0,245S109.9,490,245,490,490,380.1,490,245,380.1,0,245,0Zm0,469.1C121.4,469.1,20.9,368.6,20.9,245S121.4,20.9,245,20.9,469.1,121.4,469.1,245,368.6,469.1,245,469.1Z"/><path class="cls-1" d="M286.63,337.08h-8.42v-121a7.39,7.39,0,0,0-7.41-7.38h-71a7.4,7.4,0,0,0-7.41,7.38v24.51a7.39,7.39,0,0,0,7.41,7.38h8.42v89.07h-8.42a7.39,7.39,0,0,0-7.41,7.38V369a7.39,7.39,0,0,0,7.41,7.38h86.87A7.39,7.39,0,0,0,294,369V344.46A7.39,7.39,0,0,0,286.63,337.08Zm-7.4,24.52H207.17v-9.77h8.42a7.39,7.39,0,0,0,7.41-7.37V240.63a7.39,7.39,0,0,0-7.41-7.37h-8.42V223.5H263.4v121a7.4,7.4,0,0,0,7.4,7.38h8.43Z"/><path class="cls-1" d="M243.2,118.15a39.06,39.06,0,1,0,39.19,39.06A39.17,39.17,0,0,0,243.2,118.15Zm0,63.37a24.31,24.31,0,1,1,24.38-24.31A24.38,24.38,0,0,1,243.2,181.52Z"/></svg>