<svg id="Layer_1" data-name="Layer 1" xmlns="http://www.w3.org/2000/svg" viewBox="0 0 64 64">
    <defs>
        <style>
            .cls-1 {
                fill: #fff;
            }
        </style>
    </defs>
    <g id="play">
        <path class="cls-1" d="M32,0A32,32,0,1,1,0,32,32,32,0,0,1,32,0Zm0,62A30,30,0,1,0,2,32,30,30,0,0,0,32,62Z" />
    </g>
    <path class="cls-1"
        d="M48.49,31.31,25.32,15a1.78,1.78,0,0,0-2.79,1.53V49.17a1.77,1.77,0,0,0,2.79,1.52L48.49,34.35a1.87,1.87,0,0,0,0-3ZM26.11,45.69V20L44.3,32.83Z" />
</svg>