<svg id="Layer_1" data-name="Layer 1" xmlns="http://www.w3.org/2000/svg" viewBox="0 0 490 490">
    <defs>
        <style>
            path {
                fill: white;
            }
        </style>
    </defs>
    <path
        d="M245,0C109.9,0,0,109.9,0,245S109.9,490,245,490,490,380.1,490,245,380.1,0,245,0Zm0,469.1C121.4,469.1,20.9,368.6,20.9,245S121.4,20.9,245,20.9,469.1,121.4,469.1,245,368.6,469.1,245,469.1Z" />
    <path
        d="M346.19,232.74,198.3,124.1a11.07,11.07,0,0,0-15.81,3,12.23,12.23,0,0,0-2,7.17V351.71A11.6,11.6,0,0,0,191.3,364a11,11,0,0,0,7-2.15L346.19,253a12.82,12.82,0,0,0,2.45-17.43,12.1,12.1,0,0,0-2.45-2.55ZM203.34,328.53V157.41l116.11,85.46Z" />
    <path
        d="M346.19,231.74,198.3,123.1a11.07,11.07,0,0,0-15.81,3,12.23,12.23,0,0,0-2,7.17V350.71A11.6,11.6,0,0,0,191.3,363a11,11,0,0,0,7-2.15L346.19,252a12.82,12.82,0,0,0,2.45-17.43,12.1,12.1,0,0,0-2.45-2.55ZM203.34,327.53V156.41l116.11,85.46Z" />
</svg>