<svg id="Layer_1" data-name="Layer 1" xmlns="http://www.w3.org/2000/svg" viewBox="0 0 64 64"><g id="Rewind-backward"><path d="M17.36,31.23a1,1,0,0,0,0,1.54l12,10A1,1,0,0,0,30,43a1,1,0,0,0,.42-.09A1,1,0,0,0,31,42V34.13l10.36,8.64A1,1,0,0,0,42,43a1,1,0,0,0,.42-.09A1,1,0,0,0,43,42V22a1,1,0,0,0-1.64-.77L31,29.86V22a1,1,0,0,0-1.64-.77Zm14.2.77L41,24.13V39.87Zm-12,0L29,24.13V39.87Z" transform="translate(0)"/><path d="M0,32A32,32,0,1,0,32,0,32,32,0,0,0,0,32Zm2,0A30,30,0,1,1,32,62,30,30,0,0,1,2,32Z" transform="translate(0)"/></g></svg>