<svg id="Layer_1" data-name="Layer 1" xmlns="http://www.w3.org/2000/svg" viewBox="0 0 490 490">
    <defs>
        <style>
            path {
                fill: white;
            }
        </style>
    </defs>
    <path
        d="M245,0C109.9,0,0,109.9,0,245S109.9,490,245,490,490,380.1,490,245,380.1,0,245,0Zm0,469.1C121.4,469.1,20.9,368.6,20.9,245S121.4,20.9,245,20.9,469.1,121.4,469.1,245,368.6,469.1,245,469.1Z" />
    <path
        d="M144.94,237.47a8.45,8.45,0,0,0-.93,11,7,7,0,0,0,.93,1L229.83,328a6.7,6.7,0,0,0,4.53,1.8,6.45,6.45,0,0,0,3-.7,7.94,7.94,0,0,0,4.1-7.14v-61.7L314.72,328a6.68,6.68,0,0,0,4.53,1.8,6.45,6.45,0,0,0,3-.7,7.94,7.94,0,0,0,4.1-7.14V165.1c0-4.33-3.15-7.84-7.06-7.85a6.68,6.68,0,0,0-4.54,1.82l-73.29,67.66V165.1c0-4.33-3.15-7.84-7.06-7.85a6.68,6.68,0,0,0-4.54,1.82Zm100.46,6,66.78-61.71V305.21Zm-84.89,0,66.78-61.71V305.21Z" />
</svg>