<svg xmlns="http://www.w3.org/2000/svg" viewBox="0 0 70 70"><defs><style>.cls-1{fill:#fff;}</style></defs><g id="Layer_2" data-name="Layer 2"><rect width="70" height="70" rx="11.76"/></g><g id="svg2"><g id="layer1"><path id="path817-3" class="cls-1" d="M44.94,56.11c-2.91-.58-6-1.65-12.71-4.44-7-2.89-10.25-4-13-4.23-2.44-.25-4.07.12-7.35,1.68L9.46,50.29l-1.14-.87c-2-1.51-2.24-2.76-.56-2.76a30.55,30.55,0,0,0,4.06-.79,27.19,27.19,0,0,1,4.37-.8c1.81,0,2.14-.26,2.36-1.77.18-1.17,0-1.8-1-4-2-4.42-2-5-.85-7.47s1.21-2.92.39-4L16.53,27l-2,.53c-3.05.79-4.32,1-5.55.72s-1.51-.74-.72-.94a30.05,30.05,0,0,0,7.57-2.93A6.66,6.66,0,0,1,18,23.31a10.46,10.46,0,0,1,2.49,1c2.36,1.27,2.51,1.86,1,4A13.43,13.43,0,0,0,18.81,34c-.16,1.17,0,1.82,1,4,1.64,3.61,1.76,4.73.64,5.84-.93.93-1,.9,1.13,1.48.61.17,3.13,1,5.6,1.94a73.19,73.19,0,0,0,24.64,4.77l6.08.21L56,53.51C51.29,56.56,49.42,57,44.94,56.11Zm1.68-7.79a17.52,17.52,0,0,1-1.94-2.47l-1.53-2.23-2.07.08c-1.13,0-3.61.24-5.5.44-2.92.31-3.44.45-3.44.93,0,.94-.81,1.38-1.42.77-1.26-1.25-1.55-2.38-1.29-4.92.42-3.92.34-11.8-.14-14.2a5.16,5.16,0,0,1-.15-2.46c.16-.17.84,0,1.59.3,1.34.6,2.76.56,3.27-.09a21.68,21.68,0,0,0,1.66-5.09c0-.53-.17-.57-1.52-.38a28.53,28.53,0,0,0-3.44.82,13.28,13.28,0,0,1-2.88.6c-1.16,0-3-1.08-3-1.75,0-.27.07-.49.15-.49s5.16-1,11.28-2.13,12-2.2,13.1-2.27c2.35-.15,4.74.72,5.2,1.91s1.1,1.21-9.63,1.87a64.21,64.21,0,0,0-6.56.62c-.5.15-.72.28-.5.3a4.66,4.66,0,0,1,1.67,2.35A8,8,0,0,1,38,22.54L36.46,24l1.12-.18c.61-.11,2.54-.66,4.28-1.23l3.16-1,2.08,1.11c2.73,1.45,2.92,1.79,2.21,3.78-.56,1.56-.57,2.52-.05,8.05.07.8.23,3.32.34,5.6.23,4.5,0,6.2-1.17,7.64C47.75,48.61,47.3,48.75,46.62,48.32ZM36.18,41.87c3.88-.79,6.28-.82,7.47-.12,1.51.89,1.84.48,2.1-2.61.12-1.52.16-4.8.08-7.3-.16-4.7-.64-6.74-1.69-7.14a73.34,73.34,0,0,0-9.84,1.69c-1.11.31-1.52,1.08-1.52,2.82v1.71l2.4-.77c3.27-1,4.69-1.22,6-.79,1.16.39,1.8,1.23,1.1,1.46-.22.07-2.4.42-4.85.78s-4.5.71-4.56.77a15.2,15.2,0,0,0-.31,2.05l-.2,1.95,2.36-.63c4.54-1.21,8.13-1,8.13.37,0,.36-1,.6-4.16,1-2.29.31-4.63.64-5.2.73l-1,.17v2.23a4.73,4.73,0,0,0,.28,2.22C32.9,42.5,34.45,42.22,36.18,41.87ZM19.82,16.92c-1.12-.46-6.25-6.35-6-6.93s1.72-.45,4.27.7,3.52,2.29,3.52,4.25a3.66,3.66,0,0,1-.39,1.9C20.76,17.28,20.69,17.28,19.82,16.92ZM40,12.77c.32-.51,1.35-2.13,2.27-3.6A15.71,15.71,0,0,0,44.19,5.3c.17-1.08.28-1.2,1.16-1.2,1.09,0,3.57,1.33,3.86,2.07.11.3-.13.7-.63,1s-1.77,1.36-2.95,2.34C40.7,13.67,38.75,14.79,40,12.77Zm-6.31-.25c-1.35-1.13-3.5-3.87-3.5-4.45,0-1.16,3.51.18,5.05,1.92,1.06,1.22,1.31,2.35.64,3S34.85,13.47,33.72,12.52Z" transform="translate(2.9 4.01)"/></g></g></svg>